<?xml version="1.0" encoding="UTF-8"?>
<!DOCTYPE svg PUBLIC "-//W3C//DTD SVG 1.1//EN" "http://www.w3.org/Graphics/SVG/1.1/DTD/svg11.dtd">
<svg version="1.1" id="Layer_1" xmlns="http://www.w3.org/2000/svg" xmlns:xlink="http://www.w3.org/1999/xlink" x="0px" y="0px" width="150px" height="150px" viewBox="0 0 32 32" enable-background="new 0 0 32 32" xml:space="preserve">
  <g id="icon">
    <path d="M30.1,7.8c-1.484,-1.484,-5.601,-5.601,-5.9,-5.9c-0.35,-0.35,-0.662,-0.4,-0.9,-0.4S8.4,1.5,8.4,1.5c-0.635,0,-0.9,0.259,-0.9,0.9v6.6h8.301c2.932,0,4.007,2.948,4.134,3.737c0.105,0.653,-0.245,1.285,-0.851,1.537c-0.161,0.067,-0.338,0.101,-0.524,0.101h-2.363c0.029,0.068,0.053,0.139,0.072,0.213c0.293,1.148,1,2.917,1.757,4.404c0.161,0.316,0.329,0.634,0.491,0.941c0.792,1.498,1.475,2.793,1.483,3.944c0,4.213,-3.304,5.124,-4.122,5.124H7.5v0.6c0,0.641,0.265,0.9,0.9,0.9h21.2c0.635,0,0.9,-0.259,0.9,-0.9c0,0,0,-20.488,0,-20.8C30.5,8.35,30.353,8.053,30.1,7.8z" fill="#FFFFFF"/>
    <path d="M30.454,7.446l-5.9,-5.9C24.186,1.179,23.776,1,23.3,1H8.4c-0.916,0,-1.4,0.484,-1.4,1.4v6.6h1V2.4c0,-0.363,0.037,-0.4,0.4,-0.4h14.6v5.7c0,0.717,0.583,1.3,1.3,1.3h5.7v20.6c0,0.363,-0.037,0.4,-0.4,0.4H8.4c-0.363,0,-0.4,-0.037,-0.4,-0.4v-0.6H7v0.6c0,0.916,0.484,1.4,1.4,1.4h21.2c0.916,0,1.4,-0.484,1.4,-1.4V8.8C31,8.249,30.826,7.819,30.454,7.446zM24.3,8c-0.165,0,-0.3,-0.135,-0.3,-0.3V2.407L29.593,8H24.3z" fill="#6D6E71"/>
    <path d="M5.274,23.917c0,0.077,-0.355,1.833,-1.934,2.978c-0.182,0.184,-0.263,0.173,-0.488,0.037c-1.497,-0.979,-1.82,-2.83,-1.842,-2.934c-0.04,-0.187,0.052,-0.388,0.248,-0.47c0.048,-0.02,0.1,-0.027,0.151,-0.027h3.46C5.316,23.5,5.274,23.582,5.274,23.917zM5.938,10.674c1.179,1.055,1.64,2.357,1.644,2.376c0.038,0.19,0.197,0.326,0.381,0.326H18.56c0.048,0,0.096,-0.006,0.141,-0.025c0.184,-0.077,0.277,-0.269,0.247,-0.454c-0.024,-0.148,-0.73,-2.896,-3.147,-2.896H6.224C5.292,10,5.331,10.131,5.938,10.674zM19,23.883c0,3.713,-2.993,4.117,-3.122,4.117c-0.057,0,-7.752,0,-10.257,0c-0.35,0,-1.348,-0.051,-1.54,-0.246c-0.072,-0.073,0.211,-0.265,0.5,-0.52c0.001,-0.001,0.002,-0.001,0.003,-0.001c0.317,-0.285,1.464,-1.423,1.768,-3.259c0.162,-1.422,-1.159,-3.408,-2.28,-5.328c-1.09,-1.868,-2.12,-3.632,-2.12,-5.087c0,-2.221,1.132,-2.869,1.81,-3.132c0.128,-0.05,0.275,-0.036,0.384,0.048c1.482,1.149,2.057,2.003,2.541,3.383c0.088,0.25,0.292,0.643,0.554,0.643h7.661c0.19,0,0.353,0.149,0.401,0.335c0.33,1.291,1.095,3.158,1.835,4.61C18.005,21.153,18.993,22.765,19,23.883zM6.3,17h6.6c0.276,0,0.5,-0.224,0.5,-0.5s-0.224,-0.5,-0.5,-0.5H6.3c-0.276,0,-0.5,0.224,-0.5,0.5S6.024,17,6.3,17zM6.8,19h6.6c0.276,0,0.5,-0.224,0.5,-0.5s-0.224,-0.5,-0.5,-0.5H6.8c-0.276,0,-0.5,0.224,-0.5,0.5S6.524,19,6.8,19zM8,21h6.6c0.276,0,0.5,-0.224,0.5,-0.5s-0.224,-0.5,-0.5,-0.5H8c-0.276,0,-0.5,0.224,-0.5,0.5S7.724,21,8,21zM8.8,23h6.6c0.276,0,0.5,-0.224,0.5,-0.5s-0.224,-0.5,-0.5,-0.5H8.8c-0.276,0,-0.5,0.224,-0.5,0.5S8.524,23,8.8,23zM16.3,24.5c0,-0.276,-0.224,-0.5,-0.5,-0.5H9.2c-0.276,0,-0.5,0.224,-0.5,0.5s0.224,0.5,0.5,0.5h6.6C16.076,25,16.3,24.776,16.3,24.5z" fill="#EAB765"/>
    <path d="M15.8,25H9.2c-0.276,0,-0.5,-0.224,-0.5,-0.5s0.224,-0.5,0.5,-0.5h6.6c0.276,0,0.5,0.224,0.5,0.5S16.076,25,15.8,25zM12.9,17H6.3c-0.276,0,-0.5,-0.224,-0.5,-0.5s0.224,-0.5,0.5,-0.5h6.6c0.276,0,0.5,0.224,0.5,0.5S13.176,17,12.9,17zM15.4,23H8.8c-0.276,0,-0.5,-0.224,-0.5,-0.5s0.224,-0.5,0.5,-0.5h6.6c0.276,0,0.5,0.224,0.5,0.5S15.676,23,15.4,23zM14.6,21H8c-0.276,0,-0.5,-0.224,-0.5,-0.5s0.224,-0.5,0.5,-0.5h6.6c0.276,0,0.5,0.224,0.5,0.5S14.876,21,14.6,21zM13.4,19H6.8c-0.276,0,-0.5,-0.224,-0.5,-0.5s0.224,-0.5,0.5,-0.5h6.6c0.276,0,0.5,0.224,0.5,0.5S13.676,19,13.4,19z" fill="#FFFFFF"/>
  </g>
</svg>