<?xml version="1.0" encoding="UTF-8"?>
<!DOCTYPE svg PUBLIC "-//W3C//DTD SVG 1.1//EN" "http://www.w3.org/Graphics/SVG/1.1/DTD/svg11.dtd">
<svg version="1.1" id="Layer_1" xmlns="http://www.w3.org/2000/svg" xmlns:xlink="http://www.w3.org/1999/xlink" x="0px" y="0px" width="150px" height="150px" viewBox="0 0 32 32" enable-background="new 0 0 32 32" xml:space="preserve">
  <g id="icon">
    <path d="M30.1,7.8c-1.484,-1.484,-5.601,-5.601,-5.9,-5.9c-0.35,-0.35,-0.662,-0.4,-0.9,-0.4S8.4,1.5,8.4,1.5c-0.635,0,-0.9,0.259,-0.9,0.9v7.22c0.271,-0.384,0.713,-0.62,1.198,-0.62h2.312c0.598,0,1.131,0.358,1.358,0.911l6.991,17.063c0.186,0.454,0.134,0.967,-0.139,1.374s-0.729,0.65,-1.219,0.65h-1.518c-0.49,0,-0.936,-0.141,-1.291,-0.406c-0.329,-0.246,-0.58,-0.581,-0.725,-0.967l-1.346,-3.535H7.5v0.844V27v1v0.7v0.9c0,0.641,0.265,0.9,0.9,0.9h21.2c0.635,0,0.9,-0.259,0.9,-0.9c0,0,0,-20.488,0,-20.8C30.5,8.35,30.353,8.053,30.1,7.8z" fill="#FFFFFF"/>
    <path d="M30.454,7.446l-5.9,-5.9C24.186,1.179,23.776,1,23.3,1H8.4c-0.916,0,-1.4,0.484,-1.4,1.4v8.342l0.34,-0.83c0.132,-0.322,0.368,-0.577,0.66,-0.735V2.4c0,-0.363,0.037,-0.4,0.4,-0.4h14.6v5.7c0,0.717,0.583,1.3,1.3,1.3h5.7v20.6c0,0.363,-0.037,0.4,-0.4,0.4H8.4c-0.363,0,-0.4,-0.037,-0.4,-0.4v-4.51H7V29.6c0,0.916,0.484,1.4,1.4,1.4h21.2c0.916,0,1.4,-0.484,1.4,-1.4V8.8C31,8.249,30.826,7.819,30.454,7.446zM24.3,8c-0.165,0,-0.3,-0.135,-0.3,-0.3V2.407L29.593,8H24.3z" fill="#6D6E71"/>
    <path d="M16.484,27.998c-0.276,0,-0.508,-0.07,-0.691,-0.207c-0.179,-0.134,-0.31,-0.309,-0.389,-0.519l-1.593,-4.183H5.898l-1.593,4.183c-0.071,0.184,-0.201,0.352,-0.386,0.498c-0.192,0.151,-0.425,0.227,-0.694,0.227H1.707c-0.333,0,-0.559,-0.337,-0.433,-0.645L8.266,10.29c0.072,-0.176,0.243,-0.29,0.433,-0.29h2.312c0.19,0,0.361,0.115,0.433,0.29l6.991,17.063c0.126,0.308,-0.1,0.645,-0.433,0.645H16.484zM12.908,20.963l-2.625,-6.613c-0.143,-0.342,-0.288,-0.755,-0.433,-1.232c-0.045,0.152,-0.089,0.297,-0.134,0.437c-0.098,0.305,-0.196,0.58,-0.29,0.819l-2.613,6.589H12.908z" fill="#3E79B4"/>
  </g>
</svg>