<?xml version="1.0" encoding="UTF-8"?>
<!DOCTYPE svg PUBLIC "-//W3C//DTD SVG 1.1//EN" "http://www.w3.org/Graphics/SVG/1.1/DTD/svg11.dtd">
<svg version="1.1" id="Layer_1" xmlns="http://www.w3.org/2000/svg" xmlns:xlink="http://www.w3.org/1999/xlink" x="0px" y="0px" width="150px" height="150px" viewBox="0 0 32 32" enable-background="new 0 0 32 32" xml:space="preserve">
  <g id="icon">
    <path d="M30.1,7.8c-1.484,-1.484,-5.601,-5.601,-5.9,-5.9c-0.35,-0.35,-0.662,-0.4,-0.9,-0.4S8.4,1.5,8.4,1.5c-0.635,0,-0.9,0.259,-0.9,0.9v7.6h9.286c1.221,0,2.214,0.993,2.214,2.214v14.571c0,1.221,-0.993,2.214,-2.214,2.214H7.5v0.6c0,0.641,0.265,0.9,0.9,0.9h21.2c0.635,0,0.9,-0.259,0.9,-0.9c0,0,0,-20.488,0,-20.8C30.5,8.35,30.353,8.053,30.1,7.8z" fill="#FFFFFF"/>
    <path d="M30.454,7.446l-5.9,-5.9C24.186,1.179,23.776,1,23.3,1H8.4c-0.916,0,-1.4,0.484,-1.4,1.4v7.6h1V2.4c0,-0.363,0.037,-0.4,0.4,-0.4h14.6v5.7c0,0.717,0.583,1.3,1.3,1.3h5.7v20.6c0,0.363,-0.037,0.4,-0.4,0.4H8.4c-0.363,0,-0.4,-0.037,-0.4,-0.4v-0.6H7v0.6c0,0.916,0.484,1.4,1.4,1.4h21.2c0.916,0,1.4,-0.484,1.4,-1.4V8.8C31,8.249,30.826,7.819,30.454,7.446zM24.3,8c-0.165,0,-0.3,-0.135,-0.3,-0.3V2.407L29.593,8H24.3z" fill="#6D6E71"/>
    <path d="M17.059,27.5H1.941c-0.244,0,-0.441,-0.198,-0.441,-0.441V11.941c0,-0.244,0.198,-0.441,0.441,-0.441h15.117c0.244,0,0.441,0.198,0.441,0.441v15.117C17.5,27.302,17.302,27.5,17.059,27.5z" fill="#FFFFFF" stroke="#6D6E71" stroke-width="1" stroke-miterlimit="10"/>
    <path d="M15.672,25.998c0.181,0,0.328,-0.147,0.328,-0.328v-3.012c0,-0.062,-0.022,-0.121,-0.062,-0.171l-3.629,-4.454c-0.125,-0.153,-0.375,-0.153,-0.5,0l-4.506,5.358l-0.224,-0.289l1.761,-2.085l-1.46,-1.801c-0.124,-0.154,-0.38,-0.155,-0.505,-0.001L3,23.63v2.04c0,0.181,0.147,0.328,0.328,0.328H15.672z" fill="#3E79B4"/>
    <path d="M10.398,16.17c0,-0.933,-0.748,-1.689,-1.671,-1.689c-0.244,0,-0.475,0.053,-0.684,0.148c-0.291,-0.694,-0.95,-1.179,-1.718,-1.179c-0.949,0,-1.733,0.741,-1.859,1.703c-0.58,0.178,-1,0.703,-1,1.322c0,1.237,1.193,1.357,1.985,1.36c0.016,0.007,0.033,0.009,0.051,0.009h3.386c0.019,0,0.058,-0.002,0.105,-0.011C9.88,17.802,10.398,17.081,10.398,16.17z" fill-rule="evenodd" fill="#BCBEC0"/>
  </g>
</svg>