<?xml version="1.0" encoding="UTF-8"?>
<!DOCTYPE svg PUBLIC "-//W3C//DTD SVG 1.1//EN" "http://www.w3.org/Graphics/SVG/1.1/DTD/svg11.dtd">
<svg version="1.1" id="Layer_1" xmlns="http://www.w3.org/2000/svg" xmlns:xlink="http://www.w3.org/1999/xlink" x="0px" y="0px" width="150px" height="150px" viewBox="0 0 32 32" enable-background="new 0 0 32 32" xml:space="preserve">
  <g id="icon">
    <path d="M30.1,7.8c-1.484,-1.484,-5.601,-5.601,-5.9,-5.9c-0.35,-0.35,-0.662,-0.4,-0.9,-0.4S8.4,1.5,8.4,1.5c-0.635,0,-0.9,0.259,-0.9,0.9v6.578l1.337,-0.791C9.044,8.065,9.28,8,9.52,8c0.22,0,0.439,0.055,0.633,0.159l4.425,2.371c0.321,0.172,0.554,0.462,0.659,0.802c0.214,0.003,0.426,0.058,0.616,0.159l4.425,2.371c0.445,0.238,0.722,0.704,0.722,1.214v3.853c0,0.461,-0.224,0.886,-0.601,1.141l-5.764,4.106l-0.019,0.012c-0.208,0.135,-0.447,0.209,-0.693,0.215c-0.1,0.236,-0.266,0.442,-0.483,0.592l-5.132,3.774l-0.025,0.016c-0.218,0.141,-0.471,0.216,-0.73,0.216c-0.018,0,-0.036,-0.001,-0.053,-0.002V29.6c0,0.641,0.265,0.9,0.9,0.9h21.2c0.635,0,0.9,-0.259,0.9,-0.9c0,0,0,-20.488,0,-20.8C30.5,8.35,30.353,8.053,30.1,7.8z" fill="#FFFFFF"/>
    <path d="M30.454,7.446l-5.9,-5.9C24.186,1.179,23.776,1,23.3,1H8.4c-0.916,0,-1.4,0.484,-1.4,1.4v6.874l1,-0.592V2.4c0,-0.363,0.037,-0.4,0.4,-0.4h14.6v5.7c0,0.717,0.583,1.3,1.3,1.3h5.7v20.6c0,0.363,-0.037,0.4,-0.4,0.4H8.4c-0.363,0,-0.4,-0.037,-0.4,-0.4v-0.678c-0.143,0.051,-0.293,0.077,-0.447,0.077c-0.192,0,-0.38,-0.041,-0.553,-0.12v0.72c0,0.916,0.484,1.4,1.4,1.4h21.2c0.916,0,1.4,-0.484,1.4,-1.4V8.8C31,8.249,30.826,7.819,30.454,7.446zM24.3,8c-0.165,0,-0.3,-0.135,-0.3,-0.3V2.407L29.593,8H24.3z" fill="#6D6E71"/>
    <path d="M7.831,16.578c0.129,-0.076,0.275,-0.116,0.422,-0.116c0.135,0,0.27,0.034,0.391,0.099l0.082,0.044v-0.334c0,-0.324,0.165,-0.624,0.431,-0.785L14.3,12.23v-0.486c0,-0.14,-0.075,-0.269,-0.194,-0.332L9.681,9.041c-0.106,-0.057,-0.231,-0.054,-0.335,0.007L1.18,13.88c-0.112,0.066,-0.181,0.19,-0.181,0.325v4.003c0,0.13,0.064,0.251,0.17,0.319l1.781,1.142l4.874,-3.086L7.831,16.578zM2.423,14.367l7.097,-4.351l3.379,1.893l-7.155,4.593L2.423,14.367z" fill="#3E79B4"/>
    <path d="M19.806,14.742l-4.425,-2.371c-0.106,-0.057,-0.231,-0.054,-0.335,0.007l-5.633,3.566c-0.112,0.066,-0.181,0.19,-0.181,0.325v0.606l3.836,2.122c0.29,0.155,0.47,0.465,0.47,0.807v3.439l0.163,0.104c0.114,0.073,0.257,0.073,0.37,-0.001l5.758,-4.101c0.105,-0.068,0.169,-0.188,0.169,-0.318v-3.853C20,14.934,19.925,14.806,19.806,14.742zM13.964,18.305l-3.303,-1.902l4.567,-3.051l3.378,1.892L13.964,18.305z" fill="#8C53A1"/>
    <path d="M12.839,19.473l-4.425,-2.437c-0.106,-0.057,-0.231,-0.054,-0.335,0.007L3.08,20.276c-0.112,0.066,-0.181,0.19,-0.181,0.325v4.269c0,0.13,0.064,0.251,0.17,0.319l4.3,2.757c0.114,0.073,0.257,0.073,0.37,-0.001l5.125,-3.768c0.105,-0.068,0.169,-0.188,0.169,-0.318v-4.053C13.033,19.665,12.958,19.536,12.839,19.473zM7.632,22.89l-3.336,-2.144l3.965,-2.727l3.407,1.964L7.632,22.89z" fill="#EAB765"/>
    <path d="M4.296,20.746l3.965,-2.727l3.407,1.964L7.632,22.89L4.296,20.746zM10.661,16.403l4.567,-3.051l3.378,1.892l-4.642,3.061L10.661,16.403zM2.423,14.367l7.097,-4.351l3.379,1.893l-7.155,4.593L2.423,14.367z" fill="#FFFFFF"/>
  </g>
</svg>