<?xml version="1.0" encoding="UTF-8"?>
<!DOCTYPE svg PUBLIC "-//W3C//DTD SVG 1.1//EN" "http://www.w3.org/Graphics/SVG/1.1/DTD/svg11.dtd">
<svg version="1.1" id="Layer_1" xmlns="http://www.w3.org/2000/svg" xmlns:xlink="http://www.w3.org/1999/xlink" x="0px" y="0px" width="150px" height="150px" viewBox="0 0 32 32" enable-background="new 0 0 32 32" xml:space="preserve">
  <g id="icon">
    <path d="M30.1,7.8c-1.484,-1.484,-5.601,-5.601,-5.9,-5.9c-0.35,-0.35,-0.662,-0.4,-0.9,-0.4S8.4,1.5,8.4,1.5c-0.635,0,-0.9,0.259,-0.9,0.9v12.6h14c3.584,0,6.5,2.916,6.5,6.5s-2.916,6.5,-6.5,6.5H7.5v1.6c0,0.641,0.265,0.9,0.9,0.9h21.2c0.635,0,0.9,-0.259,0.9,-0.9c0,0,0,-20.488,0,-20.8C30.5,8.35,30.353,8.053,30.1,7.8z" fill-rule="evenodd" fill="#FFFFFF"/>
    <path d="M30.454,7.446l-5.9,-5.9C24.186,1.179,23.776,1,23.3,1H8.4c-0.916,0,-1.4,0.484,-1.4,1.4v12.6h1V2.4c0,-0.363,0.037,-0.4,0.4,-0.4h14.6v5.7c0,0.717,0.583,1.3,1.3,1.3h5.7v20.6c0,0.363,-0.037,0.4,-0.4,0.4H8.4c-0.363,0,-0.4,-0.037,-0.4,-0.4v-1.6H7v1.6c0,0.916,0.484,1.4,1.4,1.4h21.2c0.916,0,1.4,-0.484,1.4,-1.4V8.8C31,8.249,30.826,7.819,30.454,7.446zM24.3,8c-0.165,0,-0.3,-0.135,-0.3,-0.3V2.407L29.593,8H24.3z" fill="#6D6E71"/>
    <path d="M10.5,5.5h7M10.5,7.5h7M10.5,9.5h10M12.5,11.5h12M13.5,13.5h12" fill="none" stroke="#B4B4B5" stroke-width="1" stroke-linecap="round" stroke-miterlimit="10" stroke-linejoin="round" opacity="0.6"/>
    <g>
      <path d="M9.306,19.322c-0.265,-0.213,-0.676,-0.322,-1.224,-0.322H7v2.5h1.082c0.249,0,0.477,-0.035,0.677,-0.104c0.195,-0.067,0.362,-0.159,0.497,-0.273c0.129,-0.108,0.226,-0.234,0.297,-0.384c0.069,-0.148,0.103,-0.308,0.103,-0.489C9.656,19.816,9.541,19.512,9.306,19.322z" fill="#8C53A1"/>
      <path d="M22.306,19.322c-0.265,-0.213,-0.676,-0.322,-1.224,-0.322H20v2.5h1.082c0.249,0,0.477,-0.035,0.677,-0.104c0.195,-0.067,0.362,-0.159,0.497,-0.273c0.129,-0.108,0.226,-0.234,0.297,-0.384c0.069,-0.148,0.103,-0.308,0.103,-0.489C22.656,19.816,22.541,19.512,22.306,19.322z" fill="#8C53A1"/>
      <path d="M21.5,16H6.5c-3.038,0,-5.5,2.462,-5.5,5.5v0c0,3.038,2.462,5.5,5.5,5.5h15c3.038,0,5.5,-2.462,5.5,-5.5v0C27,18.462,24.538,16,21.5,16zM10.458,21.164c-0.133,0.281,-0.32,0.524,-0.558,0.724c-0.229,0.193,-0.503,0.345,-0.815,0.453c-0.305,0.105,-0.643,0.159,-1.003,0.159H7v2c0,0.276,-0.224,0.5,-0.5,0.5s-0.5,-0.224,-0.5,-0.5v-6c0,-0.276,0.224,-0.5,0.5,-0.5h1.582c0.782,0,1.405,0.183,1.852,0.544c0.479,0.387,0.722,0.961,0.722,1.706C10.656,20.576,10.589,20.884,10.458,21.164zM17,24.6c0,0.276,-0.224,0.5,-0.5,0.5s-0.5,-0.224,-0.5,-0.5v-2.6h-3v2.6c0,0.276,-0.224,0.5,-0.5,0.5s-0.5,-0.224,-0.5,-0.5v-6.1c0,-0.276,0.224,-0.5,0.5,-0.5s0.5,0.224,0.5,0.5v2.5h3v-2.5c0,-0.276,0.224,-0.5,0.5,-0.5s0.5,0.224,0.5,0.5V24.6zM23.458,21.164c-0.133,0.281,-0.32,0.524,-0.558,0.724c-0.229,0.193,-0.503,0.345,-0.815,0.453c-0.305,0.105,-0.643,0.159,-1.003,0.159H20v2c0,0.276,-0.224,0.5,-0.5,0.5s-0.5,-0.224,-0.5,-0.5v-6c0,-0.276,0.224,-0.5,0.5,-0.5h1.582c0.782,0,1.405,0.183,1.852,0.544c0.479,0.387,0.722,0.961,0.722,1.706C23.656,20.576,23.589,20.884,23.458,21.164z" fill="#8C53A1"/>
    </g>
    <path d="M6.5,24.5v-6h1.582c0.668,0,1.181,0.145,1.538,0.433c0.357,0.289,0.536,0.728,0.536,1.317c0,0.254,-0.05,0.488,-0.151,0.702c-0.101,0.214,-0.243,0.399,-0.427,0.553c-0.184,0.155,-0.403,0.276,-0.656,0.363c-0.254,0.088,-0.533,0.131,-0.84,0.131H6.6M19.5,24.5v-6h1.582c0.668,0,1.181,0.145,1.538,0.433c0.357,0.289,0.536,0.728,0.536,1.317c0,0.254,-0.05,0.488,-0.151,0.702c-0.101,0.214,-0.243,0.399,-0.427,0.553c-0.184,0.155,-0.403,0.276,-0.656,0.363c-0.254,0.088,-0.533,0.131,-0.84,0.131H19.6M16.5,18.5v6.1M12.5,18.5v6.1M12.5,21.5h4" fill="none" stroke="#FFFFFF" stroke-width="1" stroke-linecap="round" stroke-miterlimit="10" stroke-linejoin="round"/>
  </g>
</svg>