<?xml version="1.0" encoding="UTF-8"?>
<!DOCTYPE svg PUBLIC "-//W3C//DTD SVG 1.1//EN" "http://www.w3.org/Graphics/SVG/1.1/DTD/svg11.dtd">
<svg version="1.1" id="Layer_1" xmlns="http://www.w3.org/2000/svg" xmlns:xlink="http://www.w3.org/1999/xlink" x="0px" y="0px" width="150px" height="150px" viewBox="0 0 32 32" enable-background="new 0 0 32 32" xml:space="preserve">
  <g id="icon">
    <path d="M30.1,7.8c-1.484,-1.484,-5.601,-5.601,-5.9,-5.9c-0.35,-0.35,-0.662,-0.4,-0.9,-0.4S8.4,1.5,8.4,1.5c-0.635,0,-0.9,0.259,-0.9,0.9v5.651c0.14,-0.032,0.284,-0.051,0.433,-0.051h3.133C12.133,8,13,8.867,13,9.933v1.307c0.277,-0.153,0.595,-0.241,0.933,-0.241h3.133c1.066,0,1.933,0.867,1.933,1.933v14.133c0,1.066,-0.867,1.933,-1.933,1.933h-3.133c-0.568,0,-1.079,-0.246,-1.433,-0.637c-0.354,0.391,-0.866,0.637,-1.433,0.637H7.933c-0.149,0,-0.294,-0.017,-0.433,-0.049V29.6c0,0.641,0.265,0.9,0.9,0.9h21.2c0.635,0,0.9,-0.259,0.9,-0.9c0,0,0,-20.488,0,-20.8C30.5,8.35,30.353,8.053,30.1,7.8z" fill="#FFFFFF"/>
    <path d="M30.454,7.446l-5.9,-5.9C24.186,1.179,23.776,1,23.3,1H8.4c-0.916,0,-1.4,0.484,-1.4,1.4v5.841c0.277,-0.153,0.595,-0.241,0.933,-0.241H8V2.4c0,-0.363,0.037,-0.4,0.4,-0.4h14.6v5.7c0,0.717,0.583,1.3,1.3,1.3h5.7v20.6c0,0.363,-0.037,0.4,-0.4,0.4H8.4c-0.363,0,-0.4,-0.037,-0.4,-0.4v-0.6h-0.067c-0.338,0,-0.656,-0.088,-0.933,-0.241V29.6c0,0.916,0.484,1.4,1.4,1.4h21.2c0.916,0,1.4,-0.484,1.4,-1.4V8.8C31,8.249,30.826,7.819,30.454,7.446zM24.3,8c-0.165,0,-0.3,-0.135,-0.3,-0.3V2.407L29.593,8H24.3z" fill="#6D6E71"/>
    <path d="M5.067,15H1.933c-0.515,0,-0.933,0.418,-0.933,0.933v11.133c0,0.515,0.418,0.933,0.933,0.933h3.133c0.515,0,0.933,-0.418,0.933,-0.933V15.933C6,15.418,5.582,15,5.067,15zM5,26H2v-1h3V26zM5,18H2v-1h3V18zM11.067,9H7.933C7.418,9,7,9.418,7,9.933v17.133c0,0.515,0.418,0.933,0.933,0.933h3.133c0.515,0,0.933,-0.418,0.933,-0.933V9.933C12,9.418,11.582,9,11.067,9zM11,26H8v-1h3V26zM11,12H8v-1h3V12zM17.067,12h-3.133c-0.515,0,-0.933,0.418,-0.933,0.933v14.133c0,0.515,0.418,0.933,0.933,0.933h3.133c0.515,0,0.933,-0.418,0.933,-0.933V12.933C18,12.418,17.582,12,17.067,12zM17,26h-3v-1h3V26zM17,15h-3v-1h3V15z" fill="#3E79B4"/>
    <path d="M5,18H2v-1h3V18zM5,25H2v1h3V25zM11,12H8v-1h3V12zM11,25H8v1h3V25zM17,15h-3v-1h3V15zM17,25h-3v1h3V25z" fill="#FFFFFF"/>
  </g>
</svg>