<?xml version="1.0" encoding="UTF-8"?>
<!DOCTYPE svg PUBLIC "-//W3C//DTD SVG 1.1//EN" "http://www.w3.org/Graphics/SVG/1.1/DTD/svg11.dtd">
<svg version="1.1" id="Layer_1" xmlns="http://www.w3.org/2000/svg" xmlns:xlink="http://www.w3.org/1999/xlink" x="0px" y="0px" width="32px" height="32px" viewBox="0 0 32 32" enable-background="new 0 0 32 32" xml:space="preserve">
  <g id="main">
    <g id="icon">
      <path d="M2,30L16.02,30L15.67,29.53L15.09,28.54L14.85,28L4,28L4,2L18.59,2L26,9.414L26,14.22L26.37,14.28L27.49,14.63L28,14.85L28,8.586L19.41,0L2,0zz" fill="#777"/>
      <path d="M18,10L27,10L27,8L20,8L20,1L18,1zz" fill="#777"/>
    </g>
    <g id="overlay">
      <path d="M24,16c-4.418,0,-8,3.582,-8,8c0,4.418,3.582,8,8,8s8,-3.582,8,-8C32,19.582,28.418,16,24,16zM29,25h-4v4h-2v-4h-4v-2h4v-4h2v4h4V25z" fill="#128B44"/>
      <polygon points="29,23 25,23 25,19 23,19 23,23 19,23 19,25 23,25 23,29 25,29 25,25 29,25" fill="#FFFFFF" stroke-linejoin="miter"/>
    </g>
  </g>
</svg>