<?xml version="1.0" encoding="UTF-8"?>
<!DOCTYPE svg PUBLIC "-//W3C//DTD SVG 1.1//EN" "http://www.w3.org/Graphics/SVG/1.1/DTD/svg11.dtd">
<svg version="1.1" id="Layer_1" xmlns="http://www.w3.org/2000/svg" xmlns:xlink="http://www.w3.org/1999/xlink" x="0px" y="0px" width="16px" height="16px" viewBox="0 0 16 16" enable-background="new 0 0 16 16" xml:space="preserve">
  <g id="icon">
    <path d="M7,9.5v4c0,0.2761,-0.2239,0.5,-0.5,0.5H2.5c-0.2761,0,-0.5,-0.2239,-0.5,-0.5V9.5c0,-0.2761,0.2239,-0.5,0.5,-0.5h4C6.7761,9,7,9.2239,7,9.5zM6.5,2H2.5c-0.2761,0,-0.5,0.2239,-0.5,0.5v4c0,0.2761,0.2239,0.5,0.5,0.5h4c0.2761,0,0.5,-0.2239,0.5,-0.5V2.5C7,2.2239,6.7761,2,6.5,2zM13.5,9H9.5c-0.2761,0,-0.5,0.2239,-0.5,0.5v4c0,0.2761,0.2239,0.5,0.5,0.5h4c0.2761,0,0.5,-0.2239,0.5,-0.5V9.5C14,9.2239,13.7761,9,13.5,9zM13.5,2H9.5c-0.2761,0,-0.5,0.2239,-0.5,0.5v4c0,0.2761,0.2239,0.5,0.5,0.5h4c0.2761,0,0.5,-0.2239,0.5,-0.5V2.5C14,2.2239,13.7761,2,13.5,2z" fill="#fff"/>
  </g>
</svg>