<?xml version="1.0" encoding="UTF-8"?>
<!DOCTYPE svg PUBLIC "-//W3C//DTD SVG 1.1//EN" "http://www.w3.org/Graphics/SVG/1.1/DTD/svg11.dtd">
<svg version="1.1" id="Layer_1" xmlns="http://www.w3.org/2000/svg" xmlns:xlink="http://www.w3.org/1999/xlink" x="0px" y="0px" width="16px" height="16px" viewBox="0 0 16 16" enable-background="new 0 0 16 16" xml:space="preserve">
  <g id="icon">
    <path d="M7,6.5V2.5c0,-0.2761,-0.2239,-0.5,-0.5,-0.5H2.5c-0.2761,0,-0.5,0.2239,-0.5,0.5v4c0,0.2761,0.2239,0.5,0.5,0.5h4C6.7761,7,7,6.7761,7,6.5zM5.5,5.5H3.5V3.5h2V5.5z" fill="#fff" opacity="0.3"/>
    <path d="M14,6.5V2.5c0,-0.2761,-0.2239,-0.5,-0.5,-0.5H9.5c-0.2761,0,-0.5,0.2239,-0.5,0.5v4c0,0.2761,0.2239,0.5,0.5,0.5h4C13.7761,7,14,6.7761,14,6.5zM12.5,5.5h-2V3.5h2V5.5z" fill="#fff" opacity="0.3"/>
    <path d="M14,13.5V9.5c0,-0.2761,-0.2239,-0.5,-0.5,-0.5H9.5c-0.2761,0,-0.5,0.2239,-0.5,0.5v4c0,0.2761,0.2239,0.5,0.5,0.5h4C13.7761,14,14,13.7761,14,13.5zM12.5,12.5h-2v-2h2V12.5z" fill="#fff" opacity="0.3"/>
    <path d="M7,13.5V9.5c0,-0.2761,-0.2239,-0.5,-0.5,-0.5H2.5c-0.2761,0,-0.5,0.2239,-0.5,0.5v4c0,0.2761,0.2239,0.5,0.5,0.5h4C6.7761,14,7,13.7761,7,13.5zM5.5,12.5H3.5v-2h2V12.5z" fill="#fff" opacity="0.3"/>
  </g>
</svg>