<?xml version="1.0" encoding="UTF-8"?>
<!DOCTYPE svg PUBLIC "-//W3C//DTD SVG 1.1//EN" "http://www.w3.org/Graphics/SVG/1.1/DTD/svg11.dtd">
<svg version="1.1" id="Layer_1" xmlns="http://www.w3.org/2000/svg" xmlns:xlink="http://www.w3.org/1999/xlink" x="0px" y="0px" width="32px" height="32px" viewBox="0 0 32 32" enable-background="new 0 0 32 32" xml:space="preserve">
  <g id="icon">
    <path d="M22.269,30H7.731C5.674,30,4,28.326,4,26.269V8H2V6h8V4.365C10,3.061,11.061,2,12.365,2h5.269C18.939,2,20,3.061,20,4.365V6h7.8v2h-1.8v18.269C26,28.326,24.326,30,22.269,30zM6,8v18.269c0,0.954,0.776,1.731,1.731,1.731h14.538c0.954,0,1.731,-0.776,1.731,-1.731V8H6zM12,6h6V4.365c0,-0.202,-0.164,-0.365,-0.365,-0.365h-5.269c-0.201,0,-0.365,0.164,-0.365,0.365V6zM20,24h-2V12h2V24zM16,24h-2V12h2V24zM12,24h-2V12h2V24z" fill="#fff"/>
  </g>
</svg>