<?xml version="1.0" encoding="UTF-8"?>
<!DOCTYPE svg PUBLIC "-//W3C//DTD SVG 1.1//EN" "http://www.w3.org/Graphics/SVG/1.1/DTD/svg11.dtd">
<svg version="1.1" id="Layer_1" xmlns="http://www.w3.org/2000/svg" xmlns:xlink="http://www.w3.org/1999/xlink" x="0px" y="0px" width="16px" height="16px" viewBox="0 0 16 16" enable-background="new 0 0 16 16" xml:space="preserve">
  <g id="icon">
    <path d="M2.4652,7H3h2l0,0l0,0h0.4785h0.0563C6.3407,7,7,6.4407,7,5.6348V2.5333v-0.0681C7,1.6593,6.3407,1,5.5348,1h-2.944h-0.1798C1.6047,1.0667,1,1.7333,1,2.4667v3.1v0.0681C1,6.4407,1.6593,7,2.4652,7zM2,2.4647v-0.0664C2,2.1992,2.2006,2,2.468,2H5.532h0.0669C5.7994,2,6,2.1992,6,2.4647v3.0706v0.0664C6,5.8008,5.7994,6,5.532,6H2.468h-0.0669C2.2006,6,2,5.8008,2,5.5353V2.4647z" fill="#fff"/>
    <path d="M10.4652,7H11h2l0,0l0,0h0.4785h0.0563C14.3407,7,15,6.4407,15,5.6348V2.5333v-0.0681C15,1.6593,14.3407,1,13.5348,1h-2.944h-0.1798C9.6047,1.0667,9,1.7333,9,2.4667v3.1v0.0681C9,6.4407,9.6593,7,10.4652,7zM10,2.4647v-0.0664c0,-0.1992,0.2006,-0.3983,0.468,-0.3983h3.0639h0.0669c0.2006,0,0.4012,0.1992,0.4012,0.4647v3.0706v0.0664c0,0.1992,-0.2006,0.3983,-0.468,0.3983H10.468h-0.0669c-0.2006,0,-0.4012,-0.1992,-0.4012,-0.4647V2.4647z" fill="#fff"/>
    <path d="M2.4652,15H3h2l0,0l0,0h0.4785h0.0563C6.3407,15,7,14.4407,7,13.6348v-3.1015v-0.0681C7,9.6593,6.3407,9,5.5348,9h-2.944h-0.1798C1.6047,9.0667,1,9.7333,1,10.4667v3.1v0.0681C1,14.4407,1.6593,15,2.4652,15zM2,10.4647v-0.0664c0,-0.1992,0.2006,-0.3983,0.468,-0.3983H5.532h0.0669c0.2006,0,0.4012,0.1992,0.4012,0.4647v3.0706v0.0664c0,0.1992,-0.2006,0.3983,-0.468,0.3983H2.468h-0.0669c-0.2006,0,-0.4012,-0.1992,-0.4012,-0.4647V10.4647z" fill="#fff"/>
    <path d="M10.4652,15H11h2l0,0l0,0h0.4785h0.0563c0.8059,0,1.4652,-0.5593,1.4652,-1.3652v-3.1015v-0.0681C15,9.6593,14.3407,9,13.5348,9h-2.944h-0.1798C9.6047,9.0667,9,9.7333,9,10.4667v3.1v0.0681C9,14.4407,9.6593,15,10.4652,15zM10,10.4647v-0.0664c0,-0.1992,0.2006,-0.3983,0.468,-0.3983h3.0639h0.0669c0.2006,0,0.4012,0.1992,0.4012,0.4647v3.0706v0.0664c0,0.1992,-0.2006,0.3983,-0.468,0.3983H10.468h-0.0669c-0.2006,0,-0.4012,-0.1992,-0.4012,-0.4647V10.4647z" fill="#fff"/>
  </g>
</svg>