<?xml version="1.0" encoding="UTF-8"?>
<!DOCTYPE svg PUBLIC "-//W3C//DTD SVG 1.1//EN" "http://www.w3.org/Graphics/SVG/1.1/DTD/svg11.dtd">
<svg version="1.1" id="Layer_1" xmlns="http://www.w3.org/2000/svg" xmlns:xlink="http://www.w3.org/1999/xlink" x="0px" y="0px" width="16px" height="16px" viewBox="0 0 16 16" enable-background="new 0 0 16 16" xml:space="preserve">
  <g id="icon">
    <path d="M2.4652,7H3h2l0,0l0,0h0.4785h0.0563C6.3407,7,7,6.4407,7,5.6348V3.5333v-0.0681C7,2.6593,6.3407,2,5.5348,2h-2.944h-0.1798C1.6047,2.0667,1,2.7333,1,3.4667v2.1v0.0681C1,6.4407,1.6593,7,2.4652,7zM2,3.4647v-0.0664C2,3.1992,2.2006,3,2.468,3H5.532h0.0669C5.7994,3,6,3.1992,6,3.4647v2.0706v0.0664C6,5.8008,5.7994,6,5.532,6H2.468h-0.0669C2.2006,6,2,5.8008,2,5.5353V3.4647z" fill="#fff"/>
    <path d="M2.4652,14H3h2l0,0l0,0h0.4785h0.0563C6.3407,14,7,13.4407,7,12.6348v-2.1015v-0.0681C7,9.6593,6.3407,9,5.5348,9h-2.944h-0.1798C1.6047,9.0667,1,9.7333,1,10.4667v2.1v0.0681C1,13.4407,1.6593,14,2.4652,14zM2,10.4647v-0.0664c0,-0.1992,0.2006,-0.3983,0.468,-0.3983H5.532h0.0669c0.2006,0,0.4012,0.1992,0.4012,0.4647v2.0706v0.0664c0,0.1992,-0.2006,0.3983,-0.468,0.3983H2.468h-0.0669c-0.2006,0,-0.4012,-0.1992,-0.4012,-0.4647V10.4647z" fill="#fff"/>
    <path d="M14.5,5H9.5c-0.2761,0,-0.5,-0.2239,-0.5,-0.5v0c0,-0.2761,0.2239,-0.5,0.5,-0.5h5c0.2761,0,0.5,0.2239,0.5,0.5v0C15,4.7761,14.7761,5,14.5,5zM15,11.5L15,11.5c0,-0.2761,-0.2239,-0.5,-0.5,-0.5H9.5c-0.2761,0,-0.5,0.2239,-0.5,0.5v0c0,0.2761,0.2239,0.5,0.5,0.5h5C14.7761,12,15,11.7761,15,11.5z" fill="#fff"/>
  </g>
</svg>