<?xml version="1.0" encoding="UTF-8"?>
<!DOCTYPE svg PUBLIC "-//W3C//DTD SVG 1.1//EN" "http://www.w3.org/Graphics/SVG/1.1/DTD/svg11.dtd">
<svg version="1.1" id="Layer_1" xmlns="http://www.w3.org/2000/svg" xmlns:xlink="http://www.w3.org/1999/xlink" x="0px" y="0px" width="16px" height="16px" viewBox="0 0 16 16" enable-background="new 0 0 16 16" xml:space="preserve">
  <g id="icon">
    <path d="M7.9724,14.45c-3.431,0,-6.2224,-2.7914,-6.2224,-6.2224s2.7914,-6.2223,6.2224,-6.2223c1.5993,0,3.1261,0.6143,4.2776,1.7041V2.2c0,-0.4136,0.3364,-0.75,0.75,-0.75s0.75,0.3364,0.75,0.75v3.4993c0.0004,0.3026,-0.184,0.5756,-0.4581,0.6917l-0.0316,0.0427l-0.023,-0.0004l-0.0157,0.0155l-0.0765,-0.0128c-0.0132,0.0026,-0.0264,0.0048,-0.0397,0.0067l-0.0513,0.0341l-0.0762,-0.0267l-3.4627,0.0051c-0.4141,0,-0.7505,-0.3359,-0.7511,-0.7489c-0.0006,-0.4136,0.3354,-0.7505,0.7489,-0.7511l1.8604,-0.0027c-0.8847,-0.914,-2.1211,-1.4471,-3.4009,-1.4471c-2.6039,0,-4.7224,2.1184,-4.7224,4.7223S5.3685,12.95,7.9724,12.95c2.1755,0,4.0603,-1.4724,4.5835,-3.5805c0.0832,-0.3353,0.3823,-0.5695,0.7272,-0.5695c0.0609,0,0.122,0.0075,0.1815,0.0223c0.4012,0.0996,0.6467,0.5072,0.5471,0.9085C13.3221,12.5094,10.8387,14.45,7.9724,14.45z" fill="#fff"/>
  </g>
</svg>