<?xml version="1.0" encoding="UTF-8"?>
<!DOCTYPE svg PUBLIC "-//W3C//DTD SVG 1.1//EN" "http://www.w3.org/Graphics/SVG/1.1/DTD/svg11.dtd">
<svg version="1.1" id="Layer_1" xmlns="http://www.w3.org/2000/svg" xmlns:xlink="http://www.w3.org/1999/xlink" x="0px" y="0px" width="16px" height="16px" viewBox="0 0 16 16" enable-background="new 0 0 16 16" xml:space="preserve">
  <g id="icon">
    <path d="M11.5,14H4.5c-1.3785,0,-2.5,-1.1215,-2.5,-2.5V4.5c0,-1.3785,1.1215,-2.5,2.5,-2.5h7c1.3785,0,2.5,1.1215,2.5,2.5v7C14,12.8785,12.8785,14,11.5,14zM4.5,3c-0.8271,0,-1.5,0.6729,-1.5,1.5v7c0,0.8271,0.6729,1.5,1.5,1.5h7c0.8271,0,1.5,-0.6729,1.5,-1.5V4.5c0,-0.8271,-0.6729,-1.5,-1.5,-1.5H4.5z" fill="#fff"/>
    <rect x="9" y="2.5" width="1" height="11" fill="#fff"/>
  </g>
</svg>