<?xml version="1.0" encoding="UTF-8"?>
<!DOCTYPE svg PUBLIC "-//W3C//DTD SVG 1.1//EN" "http://www.w3.org/Graphics/SVG/1.1/DTD/svg11.dtd">
<svg version="1.1" id="Layer_1" xmlns="http://www.w3.org/2000/svg" xmlns:xlink="http://www.w3.org/1999/xlink" x="0px" y="0px" width="16px" height="16px" viewBox="0 0 16 16" enable-background="new 0 0 16 16" xml:space="preserve">
  <g id="icon">
    <path d="M14.499,1h-4.0107c-0.2767,0.0016,-0.5026,0.224,-0.501,0.5004c0.0016,0.2763,0.2242,0.502,0.501,0.5004h2.8082L9.1467,6.1457c-0.1957,0.1954,-0.1957,0.5123,0,0.7077c0.1957,0.1954,0.5129,0.1954,0.7086,0l4.1426,-4.152v2.8034c-0.0021,0.2765,0.2244,0.4984,0.501,0.5004c0.2767,0.0021,0.499,-0.224,0.501,-0.5004V1.5004C14.999,1.1826,14.7996,1,14.499,1zM1,14.4996v-4.0044c0.0021,-0.2764,0.2243,-0.5025,0.501,-0.5004c0.2767,0.002,0.5031,0.2239,0.501,0.5004v2.8034l4.1426,-4.152c0.1957,-0.1954,0.5129,-0.1954,0.7086,0s0.1957,0.5123,0,0.7077l-4.1498,4.1449h2.8082c0.2768,-0.0016,0.4994,0.2241,0.501,0.5004c0.0016,0.2764,-0.2243,0.4988,-0.501,0.5004H1.501C1.2004,15,1.001,14.8174,1,14.4996z" fill="#fff"/>
  </g>
</svg>