<?xml version="1.0" encoding="UTF-8"?>
<!DOCTYPE svg PUBLIC "-//W3C//DTD SVG 1.1//EN" "http://www.w3.org/Graphics/SVG/1.1/DTD/svg11.dtd">
<svg version="1.1" id="Layer_1" xmlns="http://www.w3.org/2000/svg" xmlns:xlink="http://www.w3.org/1999/xlink" x="0px" y="0px" width="16px" height="16px" viewBox="0 0 16 16" enable-background="new 0 0 16 16" xml:space="preserve">
  <g id="icon">
    <path d="M7.9655,0.0152c1.4462,0,1.2677,0.992,2.4077,0.992c0.7935,0,2.1591,-0.0092,2.9849,-0.0068c0.3865,0.0011,0.4944,0.2244,0.4944,0.6014c0,0.3019,0,0.529,0,0.8417c0,0.3708,-0.2144,0.5565,-0.5843,0.5565c-0.7168,0,-2.3462,0,-3.4037,0c-0.7921,0,-1.0599,-1,-2.0451,-1c-2.3495,0,-4.0781,0,-6.6467,0c-0.1491,0,-0.6333,0.0014,-0.7753,-0.0368c-0.3849,-0.1037,-0.5571,-0.5847,-0.327,-0.9014C0.5152,0.4495,1.0008,0.0152,1.9031,0.0152C2.9322,0.0152,7.0281,0.0152,7.9655,0.0152zM7.9655,12c1.4462,0,1.2677,-0.992,2.4077,-0.992c0.7935,0,2.1591,0.0092,2.9849,0.0068c0.3865,-0.0011,0.4944,-0.2244,0.4944,-0.6014c0,-0.3019,0,-0.529,0,-0.8417c0,-0.3708,-0.2144,-0.5565,-0.5843,-0.5565c-0.7168,0,-2.3462,0,-3.4037,0c-0.7921,0,-1.0599,1,-2.0451,1c-2.3495,0,-4.0781,0,-6.6467,0c-0.1491,0,-0.6333,-0.0014,-0.7753,0.0368c-0.3849,0.1037,-0.5571,0.5847,-0.327,0.9014C0.5152,11.5657,1.0008,12,1.9031,12C2.9322,12,7.0281,12,7.9655,12zM13.8088,13.5053L13.8088,13.5053c0,0.218,-0.1635,0.4947,-0.3652,0.4947H9.5077c-0.2017,0,-0.3652,-0.2767,-0.3652,-0.4947v0c0,-0.218,-0.1635,-0.5053,-0.3652,-0.5053H7.3652c-0.2017,0,-0.3652,0.2873,-0.3652,0.5053v2.1c0,0.218,0.1635,0.3947,0.3652,0.3947h1.4121c0.2017,0,0.3652,-0.1767,0.3652,-0.3947v0c0,-0.218,0.1635,-0.6053,0.3652,-0.6053h3.9358c0.2017,0,0.3652,0.2767,0.3652,0.4947v0c0,0.218,0.1635,0.5053,0.3652,0.5053h1.4608c0.2017,0,0.3652,-0.2873,0.3652,-0.5053v-1.9894c0,-0.218,-0.1635,-0.5053,-0.3652,-0.5053H14.174C13.9723,13,13.8088,13.2873,13.8088,13.5053zM12.5,4.2545l-2,1.9968v1.2859l2,-1.9968V4.2545zM10.5,3.5v1.4481L11.9571,3.5H10.5zM12.5,6.8436L10.9411,8.4h1.2879l0.271,-0.2705V6.8436zM10.5,11.6v1.1263L11.6281,11.6H10.5zM12.3292,13.5l0.1708,-0.1705v-1.2859L11.0413,13.5H12.3292z" fill="#797979"/>
    <path d="M4.4907,2.5c1.9262,0,3.4877,0.3425,3.4877,0.974S6.3993,4.6,4.4731,4.6c-1.9262,0,-3.4492,-0.4946,-3.4492,-1.126S2.5646,2.5,4.4907,2.5z" fill-rule="evenodd" fill="#EAB765"/>
    <path d="M4.492,5.2923c1.7503,0,3.2849,-0.4241,3.508,-0.9616c0,0.5957,-0.0006,3.3015,-0.0006,3.358C7.9994,8.8477,6.4169,9.5,4.4907,9.5c-1.9262,0,-3.4877,-0.7116,-3.4877,-1.8112c0,-0.0468,-0.0104,-3.3148,0.007,-3.358C1.287,4.8259,2.6813,5.2923,4.492,5.2923z" fill-rule="evenodd" fill="#EAB765"/>
  </g>
</svg>