<?xml version="1.0" encoding="UTF-8"?>
<!DOCTYPE svg PUBLIC "-//W3C//DTD SVG 1.1//EN" "http://www.w3.org/Graphics/SVG/1.1/DTD/svg11.dtd">
<svg version="1.1" id="Layer_1" xmlns="http://www.w3.org/2000/svg" xmlns:xlink="http://www.w3.org/1999/xlink" x="0px" y="0px" width="16px" height="16px" viewBox="0 0 16 16" enable-background="new 0 0 16 16" xml:space="preserve">
  <g id="icon">
    <path d="M15.075,3.875c-0.317,-0.317,-2.842,-2.842,-3.034,-3.034S11.583,0.5,11.117,0.5S3.1,0.5,3.1,0.5c-0.331,0,-0.6,0.269,-0.6,0.6v5.812l0.853,-2.049C3.571,4.339,4.081,4,4.651,4h1.404c0.57,0,1.08,0.339,1.298,0.864l4.246,10.201c0.059,0.141,0.09,0.288,0.101,0.435H14.9c0.331,0,0.6,-0.269,0.6,-0.6c0,0,0,-9.517,0,-9.983S15.392,4.192,15.075,3.875z" fill-rule="evenodd" fill="#FFFFFF"/>
    <path d="M15.429,3.521L12.395,0.488C12.067,0.16,11.649,0,11.117,0H3.1c-0.607,0,-1.1,0.493,-1.1,1.1v7.014l1,-2.403V1.1c0,-0.055,0.045,-0.1,0.1,-0.1h7.9v3c0,0.473,0.399,0.867,0.798,0.972c0.051,0.018,0.106,0.027,0.164,0.027H15v9.9c0,0.055,-0.045,0.1,-0.1,0.1h-3.327l0.027,0.065c0.126,0.302,0.138,0.631,0.046,0.935H14.9c0.607,0,1.1,-0.493,1.1,-1.1V4.917C16,4.324,15.84,3.933,15.429,3.521zM12.045,4c-0.016,-0.009,-0.034,-0.023,-0.045,-0.035V1.507L14.493,4H12.045z" fill="#6D6E71"/>
    <path d="M9.379,15.999c-0.194,0,-0.36,-0.05,-0.492,-0.147c-0.128,-0.094,-0.221,-0.217,-0.277,-0.364l-0.937,-2.423H3.034l-0.938,2.424c-0.051,0.131,-0.143,0.248,-0.273,0.349c-0.138,0.107,-0.306,0.161,-0.496,0.161H0.406c-0.135,0,-0.261,-0.066,-0.337,-0.177c-0.075,-0.111,-0.09,-0.25,-0.038,-0.374L4.276,5.248c0.063,-0.151,0.21,-0.248,0.375,-0.248h1.404c0.165,0,0.313,0.097,0.375,0.248l4.245,10.201c0.051,0.123,0.037,0.263,-0.039,0.374c-0.075,0.111,-0.201,0.177,-0.337,0.177H9.379zM7.029,11.554l-1.528,-3.79c-0.049,-0.115,-0.098,-0.244,-0.148,-0.386c-0.049,0.146,-0.099,0.28,-0.146,0.4l-1.521,3.776H7.029z" fill="#3E79B4"/>
  </g>
</svg>