<?xml version="1.0" encoding="UTF-8"?>
<!DOCTYPE svg PUBLIC "-//W3C//DTD SVG 1.1//EN" "http://www.w3.org/Graphics/SVG/1.1/DTD/svg11.dtd">
<svg version="1.1" id="Layer_1" xmlns="http://www.w3.org/2000/svg" xmlns:xlink="http://www.w3.org/1999/xlink" x="0px" y="0px" width="16px" height="16px" viewBox="0 0 16 16" enable-background="new 0 0 16 16" xml:space="preserve">
  <g id="icon">
    <path d="M14.9,15.5H1.1c-0.33,0,-0.6,-0.27,-0.6,-0.6V1.1c0,-0.33,0.27,-0.6,0.6,-0.6h13.8c0.33,0,0.6,0.27,0.6,0.6v13.8C15.5,15.23,15.23,15.5,14.9,15.5z" fill="#FFFFFF" stroke="#6D6E71" stroke-width="1" stroke-miterlimit="10"/>
    <path d="M2,11.763l3.578,-4.166c0.115,-0.145,0.352,-0.145,0.466,0.001l1.348,1.7l-1.626,1.968l0.206,0.272l4.16,-5.057c0.115,-0.144,0.346,-0.144,0.461,0l3.349,4.203c0.037,0.047,0.057,0.103,0.057,0.161V14H2V11.763z" fill="#3E79B4"/>
    <path d="M9,4.471c0,-0.847,-0.653,-1.534,-1.458,-1.534c-0.213,0,-0.415,0.048,-0.597,0.135C6.691,2.44,6.116,2,5.447,2c-0.828,0,-1.512,0.673,-1.622,1.547c-0.506,0.162,-0.872,0.638,-0.872,1.201c0,1.124,1.041,1.233,1.732,1.236c0.014,0.007,0.029,0.008,0.045,0.008h2.954c0.017,0,0.05,-0.002,0.092,-0.01C8.548,5.954,9,5.299,9,4.471z" fill-rule="evenodd" fill="#BCBEC0"/>
  </g>
</svg>