<?xml version="1.0" encoding="UTF-8"?>
<!DOCTYPE svg PUBLIC "-//W3C//DTD SVG 1.1//EN" "http://www.w3.org/Graphics/SVG/1.1/DTD/svg11.dtd">
<svg version="1.1" id="Layer_1" xmlns="http://www.w3.org/2000/svg" xmlns:xlink="http://www.w3.org/1999/xlink" x="0px" y="0px" width="16px" height="16px" viewBox="0 0 16 16" enable-background="new 0 0 16 16" xml:space="preserve">
  <g id="icon">
    <path d="M14.9,0.5H4.1c-0.33,0,-0.6,0.27,-0.6,0.6v0.9h8.583C13.142,2,14,2.858,14,3.917V12.5h0.9c0.33,0,0.6,-0.27,0.6,-0.6V1.1C15.5,0.77,15.23,0.5,14.9,0.5z" fill="#FFFFFF"/>
    <path d="M14.9,0H4.1c-0.607,0,-1.1,0.493,-1.1,1.1v0.9h1v-0.9c0,-0.054,0.046,-0.1,0.1,-0.1h10.8c0.054,0,0.1,0.046,0.1,0.1v10.8c0,0.054,-0.046,0.1,-0.1,0.1h-0.9v1h0.9c0.607,0,1.1,-0.493,1.1,-1.1V1.1C16,0.493,15.507,0,14.9,0z" fill="#6D6E71"/>
    <path d="M11.9,15.5H1.1c-0.33,0,-0.6,-0.27,-0.6,-0.6V4.1c0,-0.33,0.27,-0.6,0.6,-0.6h10.8c0.33,0,0.6,0.27,0.6,0.6v10.8C12.5,15.23,12.23,15.5,11.9,15.5z" fill="#FFFFFF" stroke="#6D6E71" stroke-width="1" stroke-miterlimit="10"/>
    <path d="M1.7,12.511l2.862,-3.333c0.092,-0.116,0.281,-0.116,0.373,0.001l1.078,1.36l-1.301,1.574l0.165,0.218l3.328,-4.045c0.092,-0.115,0.277,-0.115,0.369,0l2.68,3.363c0.03,0.037,0.046,0.082,0.046,0.129V14.3H1.7V12.511z" fill="#217346"/>
    <path d="M7.3,6.677c0,-0.678,-0.522,-1.227,-1.166,-1.227c-0.17,0,-0.332,0.039,-0.477,0.108C5.453,5.052,4.993,4.7,4.457,4.7c-0.662,0,-1.209,0.539,-1.297,1.238c-0.404,0.129,-0.698,0.511,-0.698,0.961c0,0.899,0.833,0.986,1.386,0.989c0.011,0.005,0.023,0.007,0.036,0.007h2.363c0.013,0,0.04,-0.002,0.073,-0.008C6.938,7.863,7.3,7.339,7.3,6.677z" fill-rule="evenodd" fill="#BCBEC0"/>
  </g>
</svg>