<?xml version="1.0" encoding="UTF-8"?>
<!DOCTYPE svg PUBLIC "-//W3C//DTD SVG 1.1//EN" "http://www.w3.org/Graphics/SVG/1.1/DTD/svg11.dtd">
<svg version="1.1" id="Layer_1" xmlns="http://www.w3.org/2000/svg" xmlns:xlink="http://www.w3.org/1999/xlink" x="0px" y="0px" width="32px" height="32px" viewBox="0 0 32 32" enable-background="new 0 0 32 32" xml:space="preserve">
  <g id="icon" style="opacity:0.1">
    <path d="M23.866,30.5H2.134c-0.35,0,-0.634,-0.284,-0.634,-0.634V8.134c0,-0.35,0.284,-0.634,0.634,-0.634h21.731c0.35,0,0.634,0.284,0.634,0.634v21.731C24.5,30.216,24.216,30.5,23.866,30.5z" fill="#FFFFFF" stroke="#6D6E71" stroke-width="1" stroke-miterlimit="10"/>
    <path d="M3,25.445l5.963,-6.667c0.192,-0.233,0.586,-0.232,0.777,0.001l2.246,2.721l-2.71,3.149l0.344,0.436l6.933,-8.092c0.192,-0.231,0.577,-0.231,0.769,0l5.582,6.727c0.062,0.075,0.096,0.165,0.096,0.258v5.047H3V25.445z" fill="#217346"/>
    <path d="M14.252,14.381c0,-1.3,-1.043,-2.355,-2.33,-2.355c-0.34,0,-0.663,0.074,-0.954,0.206c-0.406,-0.968,-1.325,-1.644,-2.395,-1.644c-1.323,0,-2.416,1.033,-2.592,2.374c-0.808,0.248,-1.394,0.979,-1.394,1.844c0,1.725,1.664,1.892,2.768,1.896c0.022,0.01,0.046,0.013,0.072,0.013h4.721c0.027,0,0.08,-0.003,0.147,-0.015C13.53,16.657,14.252,15.652,14.252,14.381z" fill-rule="evenodd" fill="#BCBEC0"/>
    <path d="M29.866,1.5H8.134c-0.35,0,-0.634,0.284,-0.634,0.634V6h16.683C25.187,6,26,6.813,26,7.817V24.5h3.866c0.35,0,0.634,-0.284,0.634,-0.634V2.134C30.5,1.784,30.216,1.5,29.866,1.5z" fill="#FFFFFF"/>
    <path d="M29.866,1H8.134C7.509,1,7,1.509,7,2.134V6h1V2.134C8,2.06,8.06,2,8.134,2h21.731c0.074,0,0.134,0.06,0.134,0.134v21.731c0,0.074,-0.06,0.134,-0.134,0.134H26v1h3.866c0.626,0,1.134,-0.509,1.134,-1.134V2.134C31,1.509,30.491,1,29.866,1z" fill="#6D6E71"/>
    <path d="M28.904,17.719l-2.904,-3.5v8.805h3v-5.047C29,17.884,28.966,17.793,28.904,17.719z" fill="#217346"/>
    <path d="M16.856,6c-0.448,-0.841,-1.301,-1.411,-2.283,-1.411c-0.982,0,-1.836,0.569,-2.284,1.411H16.856z" fill-rule="evenodd" fill="#BCBEC0"/>
  </g>
</svg>