<?xml version="1.0" encoding="UTF-8"?>
<!DOCTYPE svg PUBLIC "-//W3C//DTD SVG 1.1//EN" "http://www.w3.org/Graphics/SVG/1.1/DTD/svg11.dtd">
<svg version="1.1" id="Layer_1" xmlns="http://www.w3.org/2000/svg" xmlns:xlink="http://www.w3.org/1999/xlink" x="0px" y="0px" width="32px" height="32px" viewBox="0 0 32 32" enable-background="new 0 0 32 32" xml:space="preserve">
  <g id="icon">
    <path d="M23.092,27.616c4.69,-2.255,7.936,-7.054,7.936,-12.597c0,-7.702,-6.266,-13.968,-13.968,-13.968S3.092,7.316,3.092,15.018c0,2.151,0.489,4.19,1.362,6.012c0.005,0,0.01,0,0.015,0l2.692,0.005C6.957,20.7,6.769,20.355,6.6,20h5.276c0.064,0.353,0.133,0.701,0.204,1.043l2.157,0.003c-0.071,-0.343,-0.14,-0.693,-0.204,-1.047h6.034c-0.075,0.41,-0.155,0.814,-0.238,1.208c0.683,0.184,1.316,0.53,1.85,1.017c0.171,-0.707,0.335,-1.456,0.478,-2.226h5.365c-0.976,2.042,-2.534,3.755,-4.457,4.925c0.015,0.144,0.023,0.29,0.024,0.437L23.092,27.616zM5.872,12h5.685c-0.117,0.997,-0.187,2.008,-0.187,3c0,0.981,0.075,1.994,0.198,3H5.862c-0.254,-0.952,-0.39,-1.951,-0.39,-2.982C5.473,13.974,5.612,12.963,5.872,12zM13.327,4.048c-0.442,1.401,-1.054,3.56,-1.475,5.952H6.617C7.958,7.22,10.376,5.054,13.327,4.048zM20.113,10h-6.129c0.477,-2.717,1.207,-5.137,1.654,-6.482c0.466,-0.057,0.941,-0.087,1.422,-0.087c0.473,0,0.94,0.029,1.398,0.085C18.905,4.86,19.636,7.281,20.113,10zM20.583,14.895c0,1.014,-0.079,2.064,-0.209,3.105h-6.651c-0.13,-1.041,-0.209,-2.091,-0.209,-3.105c0,-0.957,0.066,-1.932,0.177,-2.895h6.714C20.517,12.962,20.583,13.938,20.583,14.895zM27.504,10H22.18c-0.438,-2.419,-1.075,-4.601,-1.531,-6C23.665,4.985,26.141,7.175,27.504,10zM28.258,18h-5.787c0.127,-1.006,0.204,-2.02,0.204,-3c0,-0.991,-0.072,-2.002,-0.192,-3h5.765c0.26,0.963,0.4,1.974,0.4,3.018C28.648,16.049,28.512,17.048,28.258,18z" fill="#ecc949"/>
    <path d="M1.068,27.655l-0.004,-2.312c-0.002,-0.866,0.346,-1.687,0.979,-2.314c0.643,-0.637,1.526,-1.001,2.424,-0.999l6.56,0.011c0.887,0.002,1.718,0.348,2.341,0.976c0.622,0.627,0.965,1.461,0.967,2.35l0.005,2.342l-2.014,-0.004l-0.005,-2.342c-0.001,-0.353,-0.131,-0.685,-0.368,-0.933c-0.242,-0.254,-0.569,-0.394,-0.922,-0.394l-6.56,-0.011c-0.369,-0.001,-0.734,0.151,-1.002,0.417c-0.253,0.25,-0.391,0.572,-0.391,0.905l0.004,2.312c0.001,0.35,0.154,0.682,0.43,0.933c0.264,0.24,0.617,0.378,0.968,0.378l3.094,0.004c0.072,0.744,0.745,1.556,1.293,1.997l-4.383,-0.007C2.604,30.961,1.072,29.476,1.068,27.655zM21.07,23.024c-0.65,-0.624,-1.502,-0.969,-2.398,-0.971l-4.383,-0.007c0.548,0.441,1.221,1.253,1.292,1.997l3.093,0.004c0.351,0.001,0.702,0.137,0.966,0.377c0.277,0.251,0.426,0.58,0.427,0.93l-0.002,2.305c0.001,0.334,-0.151,0.643,-0.403,0.893c0,0,0,0,0,0c-0.268,0.266,-0.621,0.431,-0.99,0.43l-6.547,0.002c-0.722,-0.001,-1.289,-0.585,-1.29,-1.328l-0.005,-2.342l-2.014,-0.004l0.004,2.342c0.004,1.83,1.488,3.322,3.308,3.326l6.56,0.011c0.898,0.002,1.782,-0.362,2.424,-0.999c0.633,-0.627,0.98,-1.449,0.979,-2.314l-0.004,-2.312C22.086,24.484,21.725,23.653,21.07,23.024z" fill="#ecc949"/>
  </g>
</svg>