<?xml version="1.0" encoding="UTF-8"?>
<!DOCTYPE svg PUBLIC "-//W3C//DTD SVG 1.1//EN" "http://www.w3.org/Graphics/SVG/1.1/DTD/svg11.dtd">
<svg version="1.1" id="Layer_1" xmlns="http://www.w3.org/2000/svg" xmlns:xlink="http://www.w3.org/1999/xlink" x="0px" y="0px" width="32px" height="32px" viewBox="0 0 32 32" enable-background="new 0 0 32 32" xml:space="preserve">
  <g id="icon">
    <path d="M26.808,17.038l3.756,2.108c0.252,0.142,0.368,0.443,0.274,0.717l-0.535,1.565c-0.091,0.266,-0.354,0.433,-0.634,0.402l-4.247,-0.469l-1.351,1.823l1.819,3.728c0.13,0.267,0.045,0.589,-0.2,0.758l-1.505,1.033c-0.231,0.159,-0.541,0.136,-0.746,-0.053l-3.137,-2.892l-2.133,0.715l-0.792,4.03c-0.056,0.287,-0.312,0.492,-0.605,0.484l-1.888,-0.051c-0.278,-0.008,-0.514,-0.205,-0.571,-0.476l-0.838,-3.987l-1.991,-0.715l-3.06,2.8c-0.214,0.196,-0.538,0.211,-0.769,0.035l-1.467,-1.118c-0.223,-0.17,-0.299,-0.473,-0.181,-0.728l1.708,-3.704l-1.173,-1.715l-4.199,0.5c-0.285,0.034,-0.554,-0.139,-0.642,-0.412l-0.551,-1.712c-0.087,-0.271,0.028,-0.567,0.277,-0.707l3.729,-2.1l-0.071,-1.858l-3.66,-2.102c-0.247,-0.142,-0.36,-0.438,-0.271,-0.709l0.547,-1.649c0.089,-0.267,0.351,-0.437,0.631,-0.408l4.246,0.437l1.28,-1.787l-1.82,-3.616c-0.133,-0.264,-0.053,-0.586,0.188,-0.758l1.583,-1.129c0.233,-0.166,0.551,-0.145,0.76,0.052l3.059,2.879l2.062,-0.643l0.855,-4.121c0.058,-0.278,0.303,-0.478,0.587,-0.478h1.89c0.285,0,0.531,0.2,0.588,0.48l0.843,4.119l1.991,0.715l3.076,-2.814c0.204,-0.187,0.509,-0.21,0.739,-0.056l1.504,1.008c0.247,0.165,0.336,0.487,0.208,0.755l-1.795,3.787l1.173,1.68l4.233,-0.5c0.283,-0.033,0.55,0.137,0.64,0.407l0.547,1.648c0.089,0.268,-0.021,0.561,-0.264,0.705l-3.663,2.171L26.808,17.038zM16.014,10.778c-2.834,0,-5.132,2.309,-5.132,5.158s2.298,5.158,5.132,5.158c2.834,0,5.132,-2.309,5.132,-5.158S18.848,10.778,16.014,10.778z" fill-rule="evenodd" fill="#ecc949"/>
  </g>
</svg>