<?xml version="1.0" encoding="UTF-8"?>
<!DOCTYPE svg PUBLIC "-//W3C//DTD SVG 1.1//EN" "http://www.w3.org/Graphics/SVG/1.1/DTD/svg11.dtd">
<svg version="1.1" id="Layer_1" xmlns="http://www.w3.org/2000/svg" xmlns:xlink="http://www.w3.org/1999/xlink" x="0px" y="0px" width="32px" height="32px" viewBox="0 0 32 32" enable-background="new 0 0 32 32" xml:space="preserve">
  <g id="icon">
    <path d="M30.808,15.755l-8.166,-4.479c-0.192,-0.12,-0.442,0.018,-0.442,0.245l1.109,2.484c-0.03,-0.003,-0.061,-0.005,-0.092,-0.005H12.825c0.041,-0.04,0.083,-0.08,0.124,-0.121l5.835,-5.835l0.962,2.515c0.16,0.16,0.435,0.082,0.486,-0.139l2.607,-8.942c0.048,-0.208,-0.138,-0.394,-0.346,-0.346l-8.942,2.607c-0.221,0.051,-0.3,0.325,-0.139,0.486l2.54,0.972l0.011,0.011l-5.843,5.843c-1.576,1.576,-3.583,2.633,-5.754,2.95H1.983c-0.543,0,-0.983,0.44,-0.983,0.983v2.033c0,0.543,0.44,0.983,0.983,0.983h2.211c2.238,0.284,4.309,1.356,5.927,2.974l5.843,5.843l-0.011,0.011l-2.54,0.972c-0.16,0.16,-0.082,0.435,0.139,0.486l8.942,2.607c0.208,0.048,0.394,-0.138,0.346,-0.346l-2.607,-8.942c-0.051,-0.221,-0.325,-0.3,-0.486,-0.139l-0.962,2.515l-5.835,-5.835c-0.049,-0.049,-0.099,-0.097,-0.149,-0.145h10.416c0.031,0,0.062,-0.002,0.092,-0.005L22.2,20.479c0,0.227,0.25,0.365,0.442,0.245l8.166,-4.479C30.989,16.132,30.989,15.868,30.808,15.755z" fill="#ecc949"/>
  </g>
</svg>