<?xml version="1.0" encoding="UTF-8"?>
<!DOCTYPE svg PUBLIC "-//W3C//DTD SVG 1.1//EN" "http://www.w3.org/Graphics/SVG/1.1/DTD/svg11.dtd">
<svg version="1.1" id="Layer_1" xmlns="http://www.w3.org/2000/svg" xmlns:xlink="http://www.w3.org/1999/xlink" x="0px" y="0px" width="32px" height="32px" viewBox="0 0 32 32" enable-background="new 0 0 32 32" xml:space="preserve">
  <g id="icon">
    <path d="M29.363,1H6.638C5.737,1,5,1.737,5,2.638v12.299c0.629,-0.312,1.299,-0.554,2,-0.713V3h22v14H15.708c1.425,1.592,2.292,3.695,2.292,6h2.5c0.275,0,0.5,0.225,0.5,0.5s-0.225,0.5,-0.5,0.5h-2.556c-0.038,0.339,-0.094,0.673,-0.168,1H20.5c0.275,0,0.5,0.225,0.5,0.5s-0.225,0.5,-0.5,0.5h-3.013c-0.252,0.712,-0.59,1.383,-1.003,2h11.441c0.536,0,0.975,-0.439,0.975,-0.975v-5.05c0,-0.536,-0.439,-0.975,-0.975,-0.975H21v-2h8.363c0.901,0,1.638,-0.737,1.638,-1.638V2.638C31,1.737,30.263,1,29.363,1zM24.5,23c0.828,0,1.5,0.672,1.5,1.5c0,0.828,-0.672,1.5,-1.5,1.5s-1.5,-0.672,-1.5,-1.5C23,23.672,23.672,23,24.5,23z" fill="#ecc949"/>
    <path d="M21,25.5c0,0.275,-0.225,0.5,-0.5,0.5h-3.013c0.115,-0.325,0.212,-0.659,0.289,-1H20.5C20.775,25,21,25.225,21,25.5zM20.5,23h-2.5c0,0.338,-0.019,0.672,-0.056,1H20.5c0.275,0,0.5,-0.225,0.5,-0.5S20.775,23,20.5,23zM7,3v11.223c0.643,-0.146,1.313,-0.223,2,-0.223c2.665,0,5.06,1.159,6.708,3H29V3H7zM24.5,23c-0.828,0,-1.5,0.672,-1.5,1.5c0,0.828,0.672,1.5,1.5,1.5s1.5,-0.672,1.5,-1.5C26,23.672,25.328,23,24.5,23z" fill="#FFFFFF"/>
    <path d="M11.352,23.012c0,-1.307,-1.06,-2.367,-2.367,-2.367c-1.307,0,-2.367,1.06,-2.367,2.367s1.06,2.367,2.367,2.367C10.293,25.379,11.352,24.319,11.352,23.012zM7.528,23.012c0,-0.805,0.653,-1.458,1.458,-1.458s1.458,0.653,1.458,1.458c0,0.805,-0.653,1.458,-1.458,1.458S7.528,23.818,7.528,23.012zM9.005,23.988c-0.546,0,-0.988,-0.442,-0.988,-0.988c0,-0.546,0.442,-0.988,0.988,-0.988c0.546,0,0.988,0.442,0.988,0.988C9.993,23.546,9.551,23.988,9.005,23.988zM14.704,18.476l-3.08,2.509c-0.427,-0.556,-1.032,-0.981,-1.761,-1.176c-0.002,-0.001,-0.005,-0.001,-0.007,-0.002l1.02,-3.838c0.005,0.001,0.01,0.002,0.015,0.004C12.458,16.393,13.768,17.295,14.704,18.476zM8.113,26.171l-1.081,3.821c-1.502,-0.424,-2.762,-1.292,-3.676,-2.424l3.088,-2.497C6.858,25.584,7.43,25.978,8.113,26.171z" fill="#FFFFFF"/>
    <path d="M9,15c-4.418,0,-8,3.582,-8,8c0,4.418,3.582,8,8,8c4.418,0,8,-3.582,8,-8C17,18.582,13.418,15,9,15zM6.619,23.012c0,-1.307,1.06,-2.367,2.367,-2.367c1.307,0,2.367,1.06,2.367,2.367s-1.06,2.367,-2.367,2.367C7.678,25.379,6.619,24.319,6.619,23.012zM14.704,18.476l-3.08,2.509c-0.427,-0.556,-1.032,-0.981,-1.761,-1.176c-0.002,-0.001,-0.005,-0.001,-0.007,-0.002l1.02,-3.838c0.005,0.001,0.01,0.002,0.015,0.004C12.458,16.393,13.768,17.295,14.704,18.476zM3.356,27.568l3.088,-2.497c0.415,0.514,0.987,0.908,1.669,1.1l-1.081,3.821C5.529,29.568,4.269,28.699,3.356,27.568zM8.986,24.47c0.805,0,1.458,-0.653,1.458,-1.458c0,-0.805,-0.653,-1.458,-1.458,-1.458s-1.458,0.653,-1.458,1.458C7.528,23.818,8.18,24.47,8.986,24.47zM9.005,22.012c0.546,0,0.988,0.442,0.988,0.988c0,0.546,-0.442,0.988,-0.988,0.988c-0.546,0,-0.988,-0.442,-0.988,-0.988C8.017,22.454,8.459,22.012,9.005,22.012z" fill="#ecc949"/>
  </g>
</svg>