<?xml version="1.0" encoding="UTF-8"?>
<!DOCTYPE svg PUBLIC "-//W3C//DTD SVG 1.1//EN" "http://www.w3.org/Graphics/SVG/1.1/DTD/svg11.dtd">
<svg version="1.1" id="Layer_1" xmlns="http://www.w3.org/2000/svg" xmlns:xlink="http://www.w3.org/1999/xlink" x="0px" y="0px" width="32px" height="32px" viewBox="0 0 32 32" enable-background="new 0 0 32 32" xml:space="preserve">
  <g id="icon">
    <path d="M9.054,28.946c0.16,0,0.314,-0.063,0.428,-0.176l3.402,-3.371c0.217,-0.217,0.211,-0.562,-0.011,-0.785l-3.391,-3.401c-0.114,-0.114,-0.269,-0.179,-0.43,-0.179H7.169c-0.205,0,-0.308,0.247,-0.163,0.392l2.551,2.556H6.316c-1.291,0,-2.302,-1.018,-2.302,-2.317V19.51c0,-0.373,-0.118,-0.49,-0.494,-0.49H2.515c-0.352,0,-0.515,0.09,-0.515,0.49v2.157c0,2.347,1.83,4.252,4.169,4.34l0.006,0.001l0.022,0c0.031,0,0.06,-0.004,0.089,-0.011h3.266l-2.535,2.545c-0.149,0.149,-0.043,0.404,0.168,0.404H9.054z" fill="#ecc949"/>
    <path d="M21.089,2.02c-0.16,0,-0.314,0.063,-0.428,0.176l-3.402,3.371c-0.217,0.217,-0.211,0.562,0.011,0.785l3.391,3.401c0.114,0.114,0.269,0.179,0.43,0.179h1.883c0.205,0,0.307,-0.247,0.163,-0.392l-2.551,-2.556h3.242c1.291,0,2.302,1.018,2.302,2.317v2.157c0,0.373,0.118,0.49,0.494,0.49h1.005c0.352,0,0.515,-0.09,0.515,-0.49V9.299c0,-2.347,-1.83,-4.252,-4.169,-4.34l-0.006,-0.001l-0.022,0c-0.031,0,-0.06,0.004,-0.089,0.011H20.59l2.535,-2.545c0.149,-0.149,0.043,-0.404,-0.168,-0.404H21.089z" fill="#ecc949"/>
    <path d="M12.285,15.691L10.876,12H4.771l-1.409,3.691c-0.069,0.186,-0.246,0.309,-0.444,0.309h-1.42c-0.332,0,-0.561,-0.333,-0.442,-0.643L6.421,1.305c0.07,-0.183,0.246,-0.305,0.442,-0.305h2.03c0.196,0,0.373,0.121,0.443,0.305l5.356,14.053c0.118,0.31,-0.111,0.642,-0.443,0.642h-1.52C12.531,16,12.354,15.877,12.285,15.691zM10.172,10L7.824,3.657L5.484,10H10.172z" fill="#ecc949"/>
    <path d="M27.259,30.291c-1.352,0,-2.61,-1.062,-3.738,-3.156c-0.294,0.191,-0.585,0.368,-0.867,0.526c-1.658,0.902,-3.42,1.665,-5.243,2.269c-0.105,0.035,-0.219,-0.017,-0.262,-0.119l-0.725,-1.717c-0.047,-0.112,0.01,-0.24,0.124,-0.281c2.549,-0.914,4.596,-1.865,6.089,-2.829c-0.429,-1.373,-0.71,-3.115,-0.835,-4.984h-4.987c-0.23,0,-0.416,-0.186,-0.416,-0.416v-1.168c0,-0.23,0.186,-0.416,0.416,-0.416H21.7v-2.984c0,-0.23,0.186,-0.416,0.416,-0.416h1.368c0.23,0,0.416,0.186,0.416,0.416V18h2.651c-0.38,-0.566,-0.89,-1.209,-1.519,-1.917c-0.081,-0.091,-0.069,-0.232,0.028,-0.307l1.234,-0.955c0.085,-0.065,0.206,-0.057,0.28,0.02c0.682,0.703,1.276,1.406,1.77,2.092c0.064,0.088,0.048,0.21,-0.035,0.281l-0.91,0.785h2.086c0.23,0,0.416,0.186,0.416,0.416v1.168c0,0.23,-0.186,0.416,-0.416,0.416h-5.496c0.092,1.347,0.271,2.629,0.53,3.618c1.004,-0.803,2.067,-1.762,3.166,-2.854c0.115,-0.114,0.304,-0.102,0.402,0.027l1.048,1.377c0.083,0.109,0.07,0.264,-0.029,0.358c-1.357,1.283,-2.602,2.377,-3.706,3.256c0.9,1.818,1.353,1.754,2.052,1.77c0.19,-0.009,0.396,-0.272,0.589,-0.759c0.167,-0.421,0.311,-0.867,0.429,-1.328c0.045,-0.175,0.247,-0.256,0.401,-0.161l1.264,0.789c0.093,0.058,0.142,0.166,0.122,0.274c-0.083,0.451,-0.25,1.045,-0.498,1.769c-0.283,0.827,-0.637,1.402,-1.053,1.709c-0.408,0.295,-0.82,0.448,-1.226,0.454h-0.003L27.259,30.291z" fill="#ecc949"/>
  </g>
</svg>