<?xml version="1.0" encoding="UTF-8"?>
<!DOCTYPE svg PUBLIC "-//W3C//DTD SVG 1.1//EN" "http://www.w3.org/Graphics/SVG/1.1/DTD/svg11.dtd">
<svg version="1.1" id="Layer_1" xmlns="http://www.w3.org/2000/svg" xmlns:xlink="http://www.w3.org/1999/xlink" x="0px" y="0px" width="32px" height="32px" viewBox="0 0 32 32" enable-background="new 0 0 32 32" xml:space="preserve">
  <g id="icon">
    <path d="M16.0012,2.5718c7.4168,0,13.4293,6.0125,13.4293,13.4293c0,7.4168,-6.0125,13.4293,-13.4293,13.4293c-7.4168,0,-13.4293,-6.0125,-13.4293,-13.4293C2.5718,8.5843,8.5843,2.5718,16.0012,2.5718z" fill-rule="evenodd" fill="#FFFFFF"/>
    <path d="M16.7659,5.2274C22.3731,5.6203,26.8,10.2929,26.8,16c0,2.908,-1.1497,5.5472,-3.0188,7.4888l0.672,1.0278C26.6434,22.3426,28,19.3298,28,16c0,-6.4213,-5.0437,-11.6646,-11.3856,-11.9845L16.7659,5.2274z" fill-rule="evenodd" fill="#ecc949"/>
    <path d="M15.5,17.1042l9.3341,9.2515c2.9936,-2.5079,4.8978,-6.2734,4.8978,-10.4842C29.7318,8.321,23.6109,2.2,16.0603,2.2c-0.1878,0,-0.3744,0.0048,-0.5603,0.0123V17.1042z" fill-rule="evenodd" fill="#ecc949"/>
    <path d="M16.0011,1C7.7162,1,1,7.7162,1,16.0011c0,8.2849,6.7162,15.0011,15.0011,15.0011c8.2849,0,15.0011,-6.7162,15.0011,-15.0011C31.0022,7.7162,24.286,1,16.0011,1zM16.0011,29.4305c-7.4168,0,-13.4293,-6.0125,-13.4293,-13.4293c0,-7.4168,6.0125,-13.4293,13.4293,-13.4293c7.4168,0,13.4293,6.0125,13.4293,13.4293C29.4305,23.4179,23.4179,29.4305,16.0011,29.4305z" fill-rule="evenodd" fill="#ecc949"/>
    <path d="M14.1688,15.6284c-0.0047,1.3492,0.1251,1.9661,1.2885,1.9716c1.1634,0.0054,1.1809,-0.7513,1.1856,-2.1005C16.6476,14.1503,16.2538,3.8035,15.5,3.8C14.7462,3.7965,14.1735,14.2792,14.1688,15.6284z" fill-rule="evenodd" fill="#ecc949"/>
    <path d="M17.3499,16.9548c-1.2038,-1.2124,-1.8013,-1.6162,-2.6277,-0.7972c-0.8264,0.8189,-0.5517,1.1722,0.6521,2.3846c1.2038,1.2124,7.739,7.1397,8.2744,6.6091C24.1842,24.6207,18.5537,18.1673,17.3499,16.9548z" fill-rule="evenodd" fill="#ecc949"/>
  </g>
</svg>