<?xml version="1.0" encoding="UTF-8"?>
<!DOCTYPE svg PUBLIC "-//W3C//DTD SVG 1.1//EN" "http://www.w3.org/Graphics/SVG/1.1/DTD/svg11.dtd">
<svg version="1.1" id="Layer_1" xmlns="http://www.w3.org/2000/svg" xmlns:xlink="http://www.w3.org/1999/xlink" x="0px" y="0px" width="32px" height="32px" viewBox="0 0 32 32" enable-background="new 0 0 32 32" xml:space="preserve">
  <g id="icon">
    <g>
      <path d="M26.6,30.5H5.4c-0.635,0,-0.9,-0.259,-0.9,-0.9V2.4c0,-0.641,0.265,-0.9,0.9,-0.9c0,0,15.663,0,15.9,0c0.237,0,0.55,0.05,0.9,0.4c0.299,0.299,3.417,3.417,4.9,4.9c0.253,0.253,0.4,0.55,0.4,1c0,0.312,0,21.8,0,21.8C27.5,30.241,27.235,30.5,26.6,30.5z" fill-rule="evenodd" fill="#FFFFFF"/>
      <path d="M27.454,6.446l-4.9,-4.9C22.186,1.179,21.776,1,21.3,1H5.4c-0.916,0,-1.4,0.484,-1.4,1.4v27.2c0,0.916,0.484,1.4,1.4,1.4h21.2c0.916,0,1.4,-0.484,1.4,-1.4V7.8C28,7.249,27.826,6.819,27.454,6.446zM22,2.407L26.593,7H22.3c-0.165,0,-0.3,-0.135,-0.3,-0.3V2.407zM26.6,30H5.4c-0.363,0,-0.4,-0.037,-0.4,-0.4V2.4c0,-0.363,0.037,-0.4,0.4,-0.4h15.6v4.7c0,0.717,0.583,1.3,1.3,1.3h4.7v21.6C27,29.963,26.963,30,26.6,30z" fill="#ecc949"/>
    </g>
    <path d="M22.976,20.521c0.086,0.23,-0.073,0.479,-0.307,0.479h-1.24c-0.197,0,-0.358,-0.052,-0.484,-0.156c-0.126,-0.104,-0.218,-0.238,-0.274,-0.401l-1.337,-3.71h-6.665l-1.337,3.71c-0.049,0.141,-0.141,0.269,-0.274,0.384c-0.133,0.115,-0.295,0.173,-0.484,0.173h-1.24c-0.234,0,-0.393,-0.249,-0.307,-0.479L14.757,5.3c0.068,-0.181,0.234,-0.3,0.418,-0.3h1.653c0.184,0,0.35,0.119,0.418,0.3L22.976,20.521zM18.723,15.039l-2.243,-6.206c-0.162,-0.423,-0.323,-0.958,-0.484,-1.605c-0.077,0.319,-0.156,0.617,-0.237,0.891c-0.081,0.275,-0.16,0.52,-0.237,0.735l-2.232,6.184H18.723z" fill="#ecc949"/>
    <path d="M10.417,28H8.583c-0.322,0,-0.583,-0.261,-0.583,-0.583v-4.833c0,-0.322,0.261,-0.583,0.583,-0.583h1.833c0.322,0,0.583,0.261,0.583,0.583v4.833C11,27.739,10.739,28,10.417,28z" fill="#ecc949"/>
    <path d="M14.417,28h-1.833c-0.322,0,-0.583,-0.261,-0.583,-0.583v-4.833c0,-0.322,0.261,-0.583,0.583,-0.583h1.833c0.322,0,0.583,0.261,0.583,0.583v4.833C15,27.739,14.739,28,14.417,28z" fill="#ecc949"/>
    <path d="M19.417,28h-1.833c-0.322,0,-0.583,-0.261,-0.583,-0.583v-4.833c0,-0.322,0.261,-0.583,0.583,-0.583h1.833c0.322,0,0.583,0.261,0.583,0.583v4.833C20,27.739,19.739,28,19.417,28z" fill="#ecc949"/>
    <path d="M23.417,28h-1.833c-0.322,0,-0.583,-0.261,-0.583,-0.583v-4.833c0,-0.322,0.261,-0.583,0.583,-0.583h1.833c0.322,0,0.583,0.261,0.583,0.583v4.833C24,27.739,23.739,28,23.417,28z" fill="#ecc949"/>
  </g>
</svg>